<svg xmlns="http://www.w3.org/2000/svg" width="1400" height="2900" viewBox="0 0 1400 2900" font-family="Helvetica,Arial,sans-serif">
<defs>
<linearGradient id="bg" x1="0" y1="0" x2="0" y2="1"><stop offset="0" stop-color="#0d1b2a"/><stop offset="1" stop-color="#081420"/></linearGradient>
<linearGradient id="barg" x1="0" y1="0" x2="1" y2="0"><stop offset="0" stop-color="#1b4965"/><stop offset="1" stop-color="#4ea8de"/></linearGradient>
<linearGradient id="bars" x1="0" y1="0" x2="1" y2="0"><stop offset="0" stop-color="#9d4f47"/><stop offset="1" stop-color="#f4978e"/></linearGradient>
<linearGradient id="barm" x1="0" y1="0" x2="1" y2="0"><stop offset="0" stop-color="#7a1420"/><stop offset="1" stop-color="#e63946"/></linearGradient>
</defs>
<rect width="1400" height="2900" fill="url(#bg)"/>
<text x="700.0" y="70" text-anchor="middle" font-size="46" font-weight="bold" fill="#e0e6ed">Sum of Divisors of the Sporadic Groups</text>
<text x="700.0" y="108" text-anchor="middle" font-size="22" fill="#9fb3c8">The &#963;&#8321; series of the 26 sporadic simple groups &#8212; every value machine-checked in Lean 4</text>
<rect x="60" y="140" width="1280" height="150" rx="14" fill="#152a41" stroke="#e63946" stroke-width="2"/>
<text x="90" y="185" font-size="26" font-weight="bold" fill="#e63946">The Monster M</text>
<text x="90" y="222" font-size="19" fill="#e0e6ed">|M| = 2&#8308;&#8310;&#183;3&#178;&#8304;&#183;5&#8313;&#183;7&#8310;&#183;11&#178;&#183;13&#179;&#183;17&#183;19&#183;23&#183;29&#183;31&#183;41&#183;47&#183;59&#183;71  &#8776; 8.08 &#215; 10&#8309;&#179;</text>
<text x="90" y="254" font-size="19" fill="#ffd166">Number of divisors:  47&#183;21&#183;10&#183;7&#183;3&#183;4&#183;2&#8313; = <tspan font-weight="bold">424,488,960</tspan>  (&#8776; 424 million)</text>
<text x="90" y="280" font-size="15" fill="#9fb3c8">&#963;&#8321;(|M|) = 5,640,122,123,081,716,028,404,428,880,410,995,850,538,621,945,774,080,000</text>
<text x="60" y="330" font-size="22" font-weight="bold" fill="#e0e6ed">Group order (blue) vs &#963;&#8321; (salmon) &#8212; log&#8321;&#8320; scale</text>
<line x1="150.0" y1="354" x2="150.0" y2="1550" stroke="#24384f" stroke-width="1"/>
<text x="150.0" y="348" text-anchor="middle" font-size="12" fill="#9fb3c8">10^0</text>
<line x1="277.9" y1="354" x2="277.9" y2="1550" stroke="#24384f" stroke-width="1"/>
<text x="277.9" y="348" text-anchor="middle" font-size="12" fill="#9fb3c8">10^10</text>
<line x1="405.7" y1="354" x2="405.7" y2="1550" stroke="#24384f" stroke-width="1"/>
<text x="405.7" y="348" text-anchor="middle" font-size="12" fill="#9fb3c8">10^20</text>
<line x1="533.6" y1="354" x2="533.6" y2="1550" stroke="#24384f" stroke-width="1"/>
<text x="533.6" y="348" text-anchor="middle" font-size="12" fill="#9fb3c8">10^30</text>
<line x1="661.4" y1="354" x2="661.4" y2="1550" stroke="#24384f" stroke-width="1"/>
<text x="661.4" y="348" text-anchor="middle" font-size="12" fill="#9fb3c8">10^40</text>
<line x1="789.3" y1="354" x2="789.3" y2="1550" stroke="#24384f" stroke-width="1"/>
<text x="789.3" y="348" text-anchor="middle" font-size="12" fill="#9fb3c8">10^50</text>
<text x="140" y="370" text-anchor="end" font-size="15" font-weight="normal" fill="#e0e6ed">M11</text>
<rect x="150" y="356" width="49.8" height="15" rx="3" fill="url(#barg)"/>
<rect x="150" y="373" width="57.1" height="15" rx="3" fill="url(#bars)"/>
<text x="140" y="416" text-anchor="end" font-size="15" font-weight="normal" fill="#e0e6ed">M12</text>
<rect x="150" y="402" width="63.6" height="15" rx="3" fill="url(#barg)"/>
<rect x="150" y="419" width="71.1" height="15" rx="3" fill="url(#bars)"/>
<text x="140" y="462" text-anchor="end" font-size="15" font-weight="normal" fill="#e0e6ed">J1</text>
<rect x="150" y="448" width="67.1" height="15" rx="3" fill="url(#barg)"/>
<rect x="150" y="465" width="74.7" height="15" rx="3" fill="url(#bars)"/>
<text x="140" y="508" text-anchor="end" font-size="15" font-weight="normal" fill="#e0e6ed">M22</text>
<rect x="150" y="494" width="72.2" height="15" rx="3" fill="url(#barg)"/>
<rect x="150" y="511" width="80.3" height="15" rx="3" fill="url(#bars)"/>
<text x="140" y="554" text-anchor="end" font-size="15" font-weight="normal" fill="#e0e6ed">J2</text>
<rect x="150" y="540" width="73.9" height="15" rx="3" fill="url(#barg)"/>
<rect x="150" y="557" width="81.9" height="15" rx="3" fill="url(#bars)"/>
<text x="140" y="600" text-anchor="end" font-size="15" font-weight="normal" fill="#e0e6ed">M23</text>
<rect x="150" y="586" width="89.6" height="15" rx="3" fill="url(#barg)"/>
<rect x="150" y="603" width="97.9" height="15" rx="3" fill="url(#bars)"/>
<text x="140" y="646" text-anchor="end" font-size="15" font-weight="normal" fill="#e0e6ed">HS</text>
<rect x="150" y="632" width="97.8" height="15" rx="3" fill="url(#barg)"/>
<rect x="150" y="649" width="106.1" height="15" rx="3" fill="url(#bars)"/>
<text x="140" y="692" text-anchor="end" font-size="15" font-weight="normal" fill="#e0e6ed">J3</text>
<rect x="150" y="678" width="98.5" height="15" rx="3" fill="url(#barg)"/>
<rect x="150" y="695" width="106.1" height="15" rx="3" fill="url(#bars)"/>
<text x="140" y="738" text-anchor="end" font-size="15" font-weight="normal" fill="#e0e6ed">M24</text>
<rect x="150" y="724" width="107.3" height="15" rx="3" fill="url(#barg)"/>
<rect x="150" y="741" width="115.8" height="15" rx="3" fill="url(#bars)"/>
<text x="140" y="784" text-anchor="end" font-size="15" font-weight="normal" fill="#e0e6ed">McL</text>
<rect x="150" y="770" width="114.5" height="15" rx="3" fill="url(#barg)"/>
<rect x="150" y="787" width="123.0" height="15" rx="3" fill="url(#bars)"/>
<text x="140" y="830" text-anchor="end" font-size="15" font-weight="normal" fill="#e0e6ed">He</text>
<rect x="150" y="816" width="122.8" height="15" rx="3" fill="url(#barg)"/>
<rect x="150" y="833" width="131.2" height="15" rx="3" fill="url(#bars)"/>
<text x="140" y="876" text-anchor="end" font-size="15" font-weight="normal" fill="#e0e6ed">Ru</text>
<rect x="150" y="862" width="142.7" height="15" rx="3" fill="url(#barg)"/>
<rect x="150" y="879" width="151.3" height="15" rx="3" fill="url(#bars)"/>
<text x="140" y="922" text-anchor="end" font-size="15" font-weight="normal" fill="#e0e6ed">Suz</text>
<rect x="150" y="908" width="149.0" height="15" rx="3" fill="url(#barg)"/>
<rect x="150" y="925" width="157.9" height="15" rx="3" fill="url(#bars)"/>
<text x="140" y="968" text-anchor="end" font-size="15" font-weight="normal" fill="#e0e6ed">O'N</text>
<rect x="150" y="954" width="149.1" height="15" rx="3" fill="url(#barg)"/>
<rect x="150" y="971" width="158.0" height="15" rx="3" fill="url(#bars)"/>
<text x="140" y="1014" text-anchor="end" font-size="15" font-weight="normal" fill="#e0e6ed">Co3</text>
<rect x="150" y="1000" width="149.5" height="15" rx="3" fill="url(#barg)"/>
<rect x="150" y="1017" width="158.3" height="15" rx="3" fill="url(#bars)"/>
<text x="140" y="1060" text-anchor="end" font-size="15" font-weight="normal" fill="#e0e6ed">Co2</text>
<rect x="150" y="1046" width="174.2" height="15" rx="3" fill="url(#barg)"/>
<rect x="150" y="1063" width="183.0" height="15" rx="3" fill="url(#bars)"/>
<text x="140" y="1106" text-anchor="end" font-size="15" font-weight="normal" fill="#e0e6ed">Fi22</text>
<rect x="150" y="1092" width="176.6" height="15" rx="3" fill="url(#barg)"/>
<rect x="150" y="1109" width="185.5" height="15" rx="3" fill="url(#bars)"/>
<text x="140" y="1152" text-anchor="end" font-size="15" font-weight="normal" fill="#e0e6ed">HN</text>
<rect x="150" y="1138" width="184.6" height="15" rx="3" fill="url(#barg)"/>
<rect x="150" y="1155" width="193.4" height="15" rx="3" fill="url(#bars)"/>
<text x="140" y="1198" text-anchor="end" font-size="15" font-weight="normal" fill="#e0e6ed">Ly</text>
<rect x="150" y="1184" width="213.7" height="15" rx="3" fill="url(#barg)"/>
<rect x="150" y="1201" width="222.6" height="15" rx="3" fill="url(#bars)"/>
<text x="140" y="1244" text-anchor="end" font-size="15" font-weight="normal" fill="#e0e6ed">Th</text>
<rect x="150" y="1230" width="216.8" height="15" rx="3" fill="url(#barg)"/>
<rect x="150" y="1247" width="225.8" height="15" rx="3" fill="url(#bars)"/>
<text x="140" y="1290" text-anchor="end" font-size="15" font-weight="normal" fill="#e0e6ed">Fi23</text>
<rect x="150" y="1276" width="238.0" height="15" rx="3" fill="url(#barg)"/>
<rect x="150" y="1293" width="247.4" height="15" rx="3" fill="url(#bars)"/>
<text x="140" y="1336" text-anchor="end" font-size="15" font-weight="normal" fill="#e0e6ed">Co1</text>
<rect x="150" y="1322" width="238.0" height="15" rx="3" fill="url(#barg)"/>
<rect x="150" y="1339" width="247.4" height="15" rx="3" fill="url(#bars)"/>
<text x="140" y="1382" text-anchor="end" font-size="15" font-weight="normal" fill="#e0e6ed">J4</text>
<rect x="150" y="1368" width="254.9" height="15" rx="3" fill="url(#barg)"/>
<rect x="150" y="1385" width="264.1" height="15" rx="3" fill="url(#bars)"/>
<text x="140" y="1428" text-anchor="end" font-size="15" font-weight="normal" fill="#e0e6ed">Fi24'</text>
<rect x="150" y="1414" width="308.1" height="15" rx="3" fill="url(#barg)"/>
<rect x="150" y="1431" width="317.9" height="15" rx="3" fill="url(#bars)"/>
<text x="140" y="1474" text-anchor="end" font-size="15" font-weight="normal" fill="#e0e6ed">B</text>
<rect x="150" y="1460" width="429.8" height="15" rx="3" fill="url(#barg)"/>
<rect x="150" y="1477" width="440.0" height="15" rx="3" fill="url(#bars)"/>
<text x="140" y="1520" text-anchor="end" font-size="15" font-weight="bold" fill="#e63946">M</text>
<rect x="150" y="1506" width="689.2" height="15" rx="3" fill="url(#barm)"/>
<rect x="150" y="1523" width="700.0" height="15" rx="3" fill="url(#bars)"/>
<text x="150" y="1572" font-size="13" fill="#9fb3c8">Bars sorted by group order. Range spans 10&#179;&#183;&#8313; (M&#8321;&#8321;) to 10&#8309;&#179;&#183;&#8313; (Monster).</text>
<rect x="920" y="330" width="420" height="210" rx="12" fill="#152a41" stroke="#24384f" stroke-width="1"/>
<text x="942" y="364" font-size="21" font-weight="bold" fill="#ffd166">Key findings</text>
<text x="942" y="396" font-size="16" fill="#e0e6ed">gcd of all 26 &#963;&#8321; values</text>
<text x="1318" y="396" text-anchor="end" font-size="16" font-weight="bold" fill="#ffd166">= 24 = 2&#179;&#183;3</text>
<text x="942" y="430" font-size="16" fill="#e0e6ed">Every group order is</text>
<text x="1318" y="430" text-anchor="end" font-size="16" font-weight="bold" fill="#4ea8de">ABUNDANT (&#963; &gt; 2n)</text>
<text x="942" y="464" font-size="16" fill="#e0e6ed">Amicable pairs found</text>
<text x="1318" y="464" text-anchor="end" font-size="16" font-weight="bold" fill="#e63946">NONE</text>
<text x="942" y="498" font-size="16" fill="#e0e6ed">Perfect numbers found</text>
<text x="1318" y="498" text-anchor="end" font-size="16" font-weight="bold" fill="#e63946">NONE</text>
<rect x="920" y="560" width="420" height="260" rx="12" fill="#152a41" stroke="#24384f" stroke-width="1"/>
<text x="942" y="594" font-size="21" font-weight="bold" fill="#ffd166">Repunits of Ogg-prime length</text>
<text x="942" y="618" font-size="14.5" fill="#9fb3c8">&#963;&#8321;(2&#7497;) = 2&#7497;&#8314;&#185; &#8722; 1 is a string of e+1 ones in binary.</text>
<text x="942" y="640" font-size="14.5" fill="#9fb3c8">8 of 26 groups have length among the 15 Ogg primes:</text>
<text x="950" y="676" font-size="15" fill="#e0e6ed">&#8226; M11 (5)</text>
<text x="1130" y="676" font-size="15" fill="#e0e6ed">&#8226; M12 (7)</text>
<text x="950" y="706" font-size="15" fill="#e0e6ed">&#8226; M24 (11)</text>
<text x="1130" y="706" font-size="15" fill="#e0e6ed">&#8226; Co2 (19)</text>
<text x="950" y="736" font-size="15" fill="#e0e6ed">&#8226; Co3 (11)</text>
<text x="1130" y="736" font-size="15" fill="#e0e6ed">&#8226; Fi23 (19)</text>
<text x="950" y="766" font-size="15" fill="#e0e6ed">&#8226; He (11)</text>
<text x="1130" y="766" font-size="15" fill="#e0e6ed">&#8226; M (47)</text>
<text x="942" y="800" font-size="13.5" fill="#ffd166">Co&#8322; &amp; Fi&#8322;&#8323;: 2&#185;&#8313;&#8722;1 = 524287 (Mersenne prime)</text>
<rect x="920" y="840" width="420" height="210" rx="12" fill="#152a41" stroke="#24384f" stroke-width="1"/>
<text x="942" y="874" font-size="21" font-weight="bold" fill="#a3e635">Where new primes appear</text>
<text x="942" y="904" font-size="15.5" fill="#e0e6ed">Monster's numbers: 15 Ogg primes only</text>
<text x="942" y="934" font-size="15.5" fill="#e0e6ed">Monster's &#963; values: +49 new primes</text>
<text x="942" y="964" font-size="15.5" fill="#e0e6ed">   (37 &#8230; 13,264,529)</text>
<text x="942" y="994" font-size="15.5" fill="#e0e6ed">Moonshine coeffs: +23 new primes</text>
<text x="942" y="1024" font-size="15.5" fill="#e0e6ed">Moonshine &#963; values: +28 new primes</text>
<rect x="920" y="1070" width="420" height="150" rx="12" fill="#152a41" stroke="#24384f" stroke-width="1"/>
<text x="942" y="1104" font-size="21" font-weight="bold" fill="#4ea8de">Extended series searched</text>
<text x="942" y="1132" font-size="15.5" fill="#e0e6ed">26 sporadic group orders</text>
<text x="942" y="1160" font-size="15.5" fill="#e0e6ed">46 Monster maximal-subgroup orders</text>
<text x="942" y="1188" font-size="15.5" fill="#e0e6ed">194 Monster character degrees</text>
<text x="942" y="1216" font-size="15.5" fill="#e0e6ed">= 266 numbers  &#8594;  no amicable pair</text>
<text x="700.0" y="1660" text-anchor="middle" font-size="30" font-weight="bold" fill="#e0e6ed">The Prime Shells &#8212; Ogg primes at the core</text>
<text x="700.0" y="1694" text-anchor="middle" font-size="17" fill="#9fb3c8">Every prime organised by SUPPORT (which series first needs it) and, in the core, by EXPONENT in |M|.</text>
<text x="700.0" y="1718" text-anchor="middle" font-size="17" fill="#9fb3c8">The 15 Ogg (supersingular) primes are the core; each outer shell is a series that breaks out of it. All machine-checked in Lean.</text>
<circle cx="700.0" cy="2320" r="200.0" fill="none" stroke="#f4a261" stroke-opacity="0.10" stroke-width="56.0"/>
<circle cx="700.0" cy="2320" r="273.0" fill="none" stroke="#f4978e" stroke-opacity="0.10" stroke-width="90.0"/>
<circle cx="700.0" cy="2320" r="358.0" fill="none" stroke="#a3e635" stroke-opacity="0.10" stroke-width="80.0"/>
<circle cx="700.0" cy="2320" r="436.0" fill="none" stroke="#4ea8de" stroke-opacity="0.10" stroke-width="76.0"/>
<circle cx="700.0" cy="2320" r="172" fill="#ffd166" fill-opacity="0.07" stroke="#ffd166" stroke-width="2.5"/>
<text x="700.0" y="2330" text-anchor="middle" font-size="34" font-weight="bold" fill="#ffd166">2<tspan baseline-shift="super" font-size="18">46</tspan></text>
<text x="700.0" y="2254.1" text-anchor="middle" font-size="23" font-weight="bold" fill="#ffd166">3<tspan baseline-shift="super" font-size="14">20</tspan></text>
<text x="770.4" y="2305.2" text-anchor="middle" font-size="23" font-weight="bold" fill="#ffd166">5<tspan baseline-shift="super" font-size="14">9</tspan></text>
<text x="743.5" y="2387.9" text-anchor="middle" font-size="23" font-weight="bold" fill="#ffd166">7<tspan baseline-shift="super" font-size="14">6</tspan></text>
<text x="656.5" y="2387.9" text-anchor="middle" font-size="23" font-weight="bold" fill="#ffd166">13<tspan baseline-shift="super" font-size="14">3</tspan></text>
<text x="629.6" y="2305.2" text-anchor="middle" font-size="23" font-weight="bold" fill="#ffd166">11<tspan baseline-shift="super" font-size="14">2</tspan></text>
<text x="700.0" y="2188.3" text-anchor="middle" font-size="18" font-weight="bold" fill="#ffd166">17<tspan baseline-shift="super" font-size="11">1</tspan></text>
<text x="788.7" y="2220.6" text-anchor="middle" font-size="18" font-weight="bold" fill="#ffd166">19<tspan baseline-shift="super" font-size="11">1</tspan></text>
<text x="835.9" y="2302.3" text-anchor="middle" font-size="18" font-weight="bold" fill="#ffd166">23<tspan baseline-shift="super" font-size="11">1</tspan></text>
<text x="819.5" y="2395.3" text-anchor="middle" font-size="18" font-weight="bold" fill="#ffd166">29<tspan baseline-shift="super" font-size="11">1</tspan></text>
<text x="747.2" y="2456.0" text-anchor="middle" font-size="18" font-weight="bold" fill="#ffd166">31<tspan baseline-shift="super" font-size="11">1</tspan></text>
<text x="652.8" y="2456.0" text-anchor="middle" font-size="18" font-weight="bold" fill="#ffd166">41<tspan baseline-shift="super" font-size="11">1</tspan></text>
<text x="580.5" y="2395.3" text-anchor="middle" font-size="18" font-weight="bold" fill="#ffd166">47<tspan baseline-shift="super" font-size="11">1</tspan></text>
<text x="564.1" y="2302.3" text-anchor="middle" font-size="18" font-weight="bold" fill="#ffd166">59<tspan baseline-shift="super" font-size="11">1</tspan></text>
<text x="611.3" y="2220.6" text-anchor="middle" font-size="18" font-weight="bold" fill="#ffd166">71<tspan baseline-shift="super" font-size="11">1</tspan></text>
<text x="700.0" y="2115.6" text-anchor="middle" font-size="16" fill="#f4a261">37</text>
<text x="881.9" y="2430.6" text-anchor="middle" font-size="16" fill="#f4a261">43</text>
<text x="518.1" y="2430.6" text-anchor="middle" font-size="16" fill="#f4a261">67</text>
<text x="700.0" y="2023.8" text-anchor="middle" font-size="11" fill="#f4978e">37</text>
<text x="740.7" y="2008.5" text-anchor="middle" font-size="11" fill="#f4978e">43</text>
<text x="776.1" y="2033.7" text-anchor="middle" font-size="11" fill="#f4978e">61</text>
<text x="819.3" y="2029.1" text-anchor="middle" font-size="11" fill="#f4978e">73</text>
<text x="847.2" y="2062.5" text-anchor="middle" font-size="11" fill="#f4978e">89</text>
<text x="890.2" y="2069.0" text-anchor="middle" font-size="11" fill="#f4978e">127</text>
<text x="908.7" y="2108.3" text-anchor="middle" font-size="11" fill="#f4978e">151</text>
<text x="948.6" y="2125.6" text-anchor="middle" font-size="11" fill="#f4978e">193</text>
<text x="956.5" y="2168.3" text-anchor="middle" font-size="11" fill="#f4978e">233</text>
<text x="990.8" y="2195.1" text-anchor="middle" font-size="11" fill="#f4978e">257</text>
<text x="987.6" y="2238.5" text-anchor="middle" font-size="11" fill="#f4978e">313</text>
<text x="1013.9" y="2273.1" text-anchor="middle" font-size="11" fill="#f4978e">337</text>
<text x="999.8" y="2314.2" text-anchor="middle" font-size="11" fill="#f4978e">397</text>
<text x="1016.5" y="2354.4" text-anchor="middle" font-size="11" fill="#f4978e">431</text>
<text x="992.5" y="2390.6" text-anchor="middle" font-size="11" fill="#f4978e">521</text>
<text x="998.4" y="2433.7" text-anchor="middle" font-size="11" fill="#f4978e">547</text>
<text x="966.0" y="2462.6" text-anchor="middle" font-size="11" fill="#f4978e">631</text>
<text x="960.8" y="2505.8" text-anchor="middle" font-size="11" fill="#f4978e">683</text>
<text x="922.1" y="2525.5" text-anchor="middle" font-size="11" fill="#f4978e">757</text>
<text x="906.1" y="2566.0" text-anchor="middle" font-size="11" fill="#f4978e">829</text>
<text x="863.7" y="2575.3" text-anchor="middle" font-size="11" fill="#f4978e">1093</text>
<text x="838.0" y="2610.4" text-anchor="middle" font-size="11" fill="#f4978e">1103</text>
<text x="794.5" y="2608.6" text-anchor="middle" font-size="11" fill="#f4978e">1181</text>
<text x="760.8" y="2636.0" text-anchor="middle" font-size="11" fill="#f4978e">1597</text>
<text x="719.2" y="2623.2" text-anchor="middle" font-size="11" fill="#f4978e">1871</text>
<text x="679.6" y="2641.2" text-anchor="middle" font-size="11" fill="#f4978e">2089</text>
<text x="642.7" y="2618.3" text-anchor="middle" font-size="11" fill="#f4978e">2113</text>
<text x="599.8" y="2625.6" text-anchor="middle" font-size="11" fill="#f4978e">2351</text>
<text x="569.8" y="2594.1" text-anchor="middle" font-size="11" fill="#f4978e">2801</text>
<text x="526.5" y="2590.4" text-anchor="middle" font-size="11" fill="#f4978e">3851</text>
<text x="505.5" y="2552.3" text-anchor="middle" font-size="11" fill="#f4978e">4513</text>
<text x="464.6" y="2537.6" text-anchor="middle" font-size="11" fill="#f4978e">4733</text>
<text x="453.9" y="2495.5" text-anchor="middle" font-size="11" fill="#f4978e">5419</text>
<text x="418.1" y="2470.9" text-anchor="middle" font-size="11" fill="#f4978e">8191</text>
<text x="418.5" y="2427.5" text-anchor="middle" font-size="11" fill="#f4978e">9719</text>
<text x="390.0" y="2394.6" text-anchor="middle" font-size="11" fill="#f4978e">19531</text>
<text x="401.4" y="2352.7" text-anchor="middle" font-size="11" fill="#f4978e">23311</text>
<text x="382.2" y="2313.7" text-anchor="middle" font-size="11" fill="#f4978e">34511</text>
<text x="403.8" y="2276.0" text-anchor="middle" font-size="11" fill="#f4978e">61681</text>
<text x="395.1" y="2233.4" text-anchor="middle" font-size="11" fill="#f4978e">65537</text>
<text x="425.7" y="2202.4" text-anchor="middle" font-size="11" fill="#f4978e">131071</text>
<text x="428.1" y="2159.0" text-anchor="middle" font-size="11" fill="#f4978e">178481</text>
<text x="465.5" y="2136.8" text-anchor="middle" font-size="11" fill="#f4978e">363889</text>
<text x="478.8" y="2095.4" text-anchor="middle" font-size="11" fill="#f4978e">368089</text>
<text x="520.6" y="2083.4" text-anchor="middle" font-size="11" fill="#f4978e">524287</text>
<text x="544.0" y="2046.8" text-anchor="middle" font-size="11" fill="#f4978e">599479</text>
<text x="587.4" y="2045.8" text-anchor="middle" font-size="11" fill="#f4978e">797161</text>
<text x="619.3" y="2016.3" text-anchor="middle" font-size="11" fill="#f4978e">2099863</text>
<text x="661.6" y="2026.3" text-anchor="middle" font-size="11" fill="#f4978e">13264529</text>
<text x="700.0" y="1943.8" text-anchor="middle" font-size="11" fill="#a3e635">199</text>
<text x="806.8" y="1942.5" text-anchor="middle" font-size="11" fill="#a3e635">271</text>
<text x="897.4" y="1999.2" text-anchor="middle" font-size="11" fill="#a3e635">281</text>
<text x="989.4" y="2053.6" text-anchor="middle" font-size="11" fill="#a3e635">383</text>
<text x="1037.4" y="2149.0" text-anchor="middle" font-size="11" fill="#a3e635">1483</text>
<text x="1087.7" y="2243.3" text-anchor="middle" font-size="11" fill="#a3e635">1823</text>
<text x="1079.1" y="2349.8" text-anchor="middle" font-size="11" fill="#a3e635">2099</text>
<text x="1073.1" y="2456.5" text-anchor="middle" font-size="11" fill="#a3e635">2143</text>
<text x="1010.4" y="2543.0" text-anchor="middle" font-size="11" fill="#a3e635">4723</text>
<text x="949.9" y="2631.0" text-anchor="middle" font-size="11" fill="#a3e635">41047</text>
<text x="851.4" y="2672.4" text-anchor="middle" font-size="11" fill="#a3e635">45767</text>
<text x="753.9" y="2716.2" text-anchor="middle" font-size="11" fill="#a3e635">96457</text>
<text x="648.3" y="2700.3" text-anchor="middle" font-size="11" fill="#a3e635">112291</text>
<text x="542.2" y="2687.1" text-anchor="middle" font-size="11" fill="#a3e635">355679</text>
<text x="460.2" y="2618.6" text-anchor="middle" font-size="11" fill="#a3e635">777421</text>
<text x="376.5" y="2552.2" text-anchor="middle" font-size="11" fill="#a3e635">5366467</text>
<text x="341.9" y="2451.1" text-anchor="middle" font-size="11" fill="#a3e635">8202479</text>
<text x="304.9" y="2350.9" text-anchor="middle" font-size="11" fill="#a3e635">15376021</text>
<text x="327.9" y="2246.5" text-anchor="middle" font-size="11" fill="#a3e635">174376673</text>
<text x="348.4" y="2141.7" text-anchor="middle" font-size="11" fill="#a3e635">1746673133</text>
<text x="422.3" y="2064.5" text-anchor="middle" font-size="11" fill="#a3e635">10980221089</text>
<text x="494.2" y="1985.5" text-anchor="middle" font-size="11" fill="#a3e635">666739430527</text>
<text x="597.5" y="1957.9" text-anchor="middle" font-size="11" fill="#a3e635">1008344102147</text>
<text x="700.0" y="1871.8" text-anchor="middle" font-size="11" fill="#4ea8de">37</text>
<text x="804.1" y="1867.6" text-anchor="middle" font-size="11" fill="#4ea8de">43</text>
<text x="896.1" y="1916.6" text-anchor="middle" font-size="11" fill="#4ea8de">53</text>
<text x="991.8" y="1958.0" text-anchor="middle" font-size="11" fill="#4ea8de">61</text>
<text x="1053.4" y="2042.0" text-anchor="middle" font-size="11" fill="#4ea8de">67</text>
<text x="1121.7" y="2120.8" text-anchor="middle" font-size="11" fill="#4ea8de">73</text>
<text x="1140.7" y="2223.3" text-anchor="middle" font-size="11" fill="#4ea8de">109</text>
<text x="1168.0" y="2323.8" text-anchor="middle" font-size="11" fill="#4ea8de">127</text>
<text x="1140.7" y="2424.4" text-anchor="middle" font-size="11" fill="#4ea8de">151</text>
<text x="1121.7" y="2526.9" text-anchor="middle" font-size="11" fill="#4ea8de">239</text>
<text x="1053.4" y="2605.7" text-anchor="middle" font-size="11" fill="#4ea8de">419</text>
<text x="991.8" y="2689.7" text-anchor="middle" font-size="11" fill="#4ea8de">733</text>
<text x="896.1" y="2731.1" text-anchor="middle" font-size="11" fill="#4ea8de">1093</text>
<text x="804.1" y="2780.1" text-anchor="middle" font-size="11" fill="#4ea8de">1171</text>
<text x="700.0" y="2775.8" text-anchor="middle" font-size="11" fill="#4ea8de">1181</text>
<text x="595.9" y="2780.1" text-anchor="middle" font-size="11" fill="#4ea8de">1907</text>
<text x="503.9" y="2731.1" text-anchor="middle" font-size="11" fill="#4ea8de">2837</text>
<text x="408.2" y="2689.7" text-anchor="middle" font-size="11" fill="#4ea8de">8191</text>
<text x="346.6" y="2605.7" text-anchor="middle" font-size="11" fill="#4ea8de">8707</text>
<text x="278.3" y="2526.9" text-anchor="middle" font-size="11" fill="#4ea8de">8929</text>
<text x="259.3" y="2424.4" text-anchor="middle" font-size="11" fill="#4ea8de">33601</text>
<text x="232.0" y="2323.8" text-anchor="middle" font-size="11" fill="#4ea8de">131071</text>
<text x="259.3" y="2223.3" text-anchor="middle" font-size="11" fill="#4ea8de">388711</text>
<text x="278.3" y="2120.8" text-anchor="middle" font-size="11" fill="#4ea8de">833593</text>
<text x="346.6" y="2042.0" text-anchor="middle" font-size="11" fill="#4ea8de">937679</text>
<text x="408.2" y="1958.0" text-anchor="middle" font-size="11" fill="#4ea8de">1341617</text>
<text x="503.9" y="1916.6" text-anchor="middle" font-size="11" fill="#4ea8de">7688011</text>
<text x="595.9" y="1867.6" text-anchor="middle" font-size="11" fill="#4ea8de">7867897</text>
<rect x="70" y="1730" width="290" height="236" rx="12" fill="#152a41" stroke="#24384f" stroke-width="1"/>
<text x="88" y="1760" font-size="18" font-weight="bold" fill="#e0e6ed">Shells (outward)</text>
<circle cx="96" cy="1783" r="8" fill="#ffd166"/>
<text x="114" y="1788" font-size="15" font-weight="bold" fill="#ffd166">Ogg core</text>
<text x="114" y="1804" font-size="12.5" fill="#9fb3c8">15 supersingular primes of |M|</text>
<circle cx="96" cy="1818" r="8" fill="#f4a261"/>
<text x="114" y="1823" font-size="15" font-weight="bold" fill="#f4a261">Pariah numbers</text>
<text x="114" y="1839" font-size="12.5" fill="#9fb3c8">3 new: orders of J4, Ly</text>
<circle cx="96" cy="1853" r="8" fill="#f4978e"/>
<text x="114" y="1858" font-size="15" font-weight="bold" fill="#f4978e">Monster &#963;&#8321;</text>
<text x="114" y="1874" font-size="12.5" fill="#9fb3c8">49 new in the divisor sums</text>
<circle cx="96" cy="1888" r="8" fill="#a3e635"/>
<text x="114" y="1893" font-size="15" font-weight="bold" fill="#a3e635">Moonshine c(n)</text>
<text x="114" y="1909" font-size="12.5" fill="#9fb3c8">23 new in j-coefficients</text>
<circle cx="96" cy="1923" r="8" fill="#4ea8de"/>
<text x="114" y="1928" font-size="15" font-weight="bold" fill="#4ea8de">Moonshine &#963;&#8321;</text>
<text x="114" y="1944" font-size="12.5" fill="#9fb3c8">28 new in their divisor sums</text>
<rect x="1040" y="1730" width="290" height="236" rx="12" fill="#152a41" stroke="#24384f" stroke-width="1"/>
<text x="1058" y="1760" font-size="18" font-weight="bold" fill="#e0e6ed">Reading the shells</text>
<text x="1058" y="1788" font-size="13.5" fill="#9fb3c8">Core primes are sized &amp; ranked by</text>
<text x="1058" y="1808" font-size="13.5" fill="#9fb3c8">their exponent in |M|: 2&#8308;&#8310; at the</text>
<text x="1058" y="1828" font-size="13.5" fill="#9fb3c8">centre, out to the nine exponent-1</text>
<text x="1058" y="1848" font-size="13.5" fill="#9fb3c8">primes on the gold boundary.</text>
<text x="1058" y="1868" font-size="13.5" fill="#9fb3c8"></text>
<text x="1058" y="1888" font-size="13.5" fill="#9fb3c8">Each outer shell is a series whose</text>
<text x="1058" y="1908" font-size="13.5" fill="#9fb3c8">&#963;&#8321; (or coefficients) break out of</text>
<text x="1058" y="1928" font-size="13.5" fill="#9fb3c8">the supersingular core, needing the</text>
<text x="1058" y="1948" font-size="13.5" fill="#9fb3c8">new primes shown on that ring.</text>
<text x="700.0" y="2830" text-anchor="middle" font-size="15" fill="#9fb3c8">&#963;&#8321;(n) computed via multiplicativity: &#963;&#8321;(&#8719; p&#7522;^e&#7522;) = &#8719; (1 + p&#7522; + &#8230; + p&#7522;^e&#7522;), each a base-p&#7522; repunit.</text>
<text x="700.0" y="2856" text-anchor="middle" font-size="14" fill="#9fb3c8">All values formalised and machine-checked in Lean 4 / Mathlib &#8212; no sorry, standard axioms only.</text>
</svg>